<svg xmlns="http://www.w3.org/2000/svg" viewBox="0 0 1080 1080"><path fill="#0F0" d="M 704.4 177.8 L 704.3 177.85 Q 688.5 193.7 688.5 216 688.5 238.35 704.35 254.2 720.15 270 742.5 270 764.8 270 780.65 254.2 780.7 254.2 780.75 254.15 796.5 238.3 796.5 216 796.5 193.65 780.7 177.85 764.85 162 742.5 162 720.2 162 704.4 177.8 M 742.5 216.05 L 742.5 216 742.55 216 742.5 216.05 M 189.35 162 Q 189.3 139.65 173.4 123.85 157.55 108 135.35 108 L 0 108 Q 0 110.8 0.15 113.5 0.75 127.4 4.55 140 12 164.7 31.6 184.3 44.25 196.95 58.85 204.5 69.6 210.1 81.4 212.95 L 81.4 643.5 Q 69.6 646.35 58.85 651.95 44.25 659.5 31.6 672.15 12 691.75 4.55 716.45 0.75 729.05 0.15 742.95 0 745.65 0 748.45 L 270.75 748.45 Q 270.75 745.65 270.6 742.95 270 729.05 266.2 716.45 258.75 691.75 239.15 672.15 226.5 659.5 211.9 651.95 201.15 646.35 189.35 643.5 L 189.35 162 M 469.2 0.7 Q 458.9 2.4 449.65 8.05 423.1 24.4 398.35 45.4 383.6 57.85 369.5 71.95 282.6 158.9 256.45 271.05 L 256.5 271.05 Q 245.05 319.45 245 372.55 245 394.9 260.8 410.75 276.65 426.55 299 426.55 L 933.2 426.55 Q 972.3 495.45 972 580.7 972.25 721.4 885.85 826.2 872.65 842.25 857.4 857.45 742.85 972 580.65 972 418.5 972 303.9 857.45 299.3 852.85 294.95 848.2 L 294.9 848.2 Q 286.65 839.4 279.05 830.35 278.45 829.75 277.9 829.1 277.25 828.3 276.65 827.55 276.1 826.9 275.55 826.25 L 275.55 826.2 Q 274.8 825.25 274 824.35 273.25 823.8 272.55 823.3 261.2 815.2 249 810.4 233.7 804.45 217.1 803.7 209.85 803.3 202.4 803.9 199.85 804.15 197.35 804.45 179.65 806.65 164.65 813.55 153.8 818.45 144.3 825.85 163.8 859.9 189.4 891.5 190.8 893.2 192.2 894.9 203.7 908.85 216.4 922.35 L 216.4 922.3 Q 221.8 928.05 227.55 933.8 297.95 1004.15 382.35 1040.65 473.3 1080 580.65 1080 688.05 1080 779 1040.65 863.4 1004.15 933.8 933.85 L 933.8 933.8 Q 952.75 914.9 969.15 894.95 L 969.2 894.9 Q 1079.8 760.7 1080 580.7 1079.75 446.25 1007.4 341.85 999.7 330.85 988 324.7 976.2 318.55 963 318.55 L 357.1 318.55 Q 358.95 307 361.6 295.85 L 361.6 295.75 Q 381.4 212.85 445.9 148.3 L 445.95 148.3 Q 451.05 143.1 456.3 138.25 462.7 132.35 469.2 126.9 481.35 116.75 494.05 108 L 784 108 Q 784.1 108 784.2 108 784.3 108 784.4 108 787.6 108 790.75 107.65 804.05 106.15 814.95 98.35 840.15 82.6 863.65 62.7 878.4 50.25 892.45 36.15 909.9 18.7 924.9 0.25 925 0.1 925.1 0 L 478 0 Q 473.55 0 469.2 0.7 M 490.4 177.8 L 490.25 177.85 Q 474.5 193.7 474.5 216 474.5 238.35 490.3 254.2 506.15 270 528.5 270 550.8 270 566.65 254.2 566.7 254.2 566.75 254.15 582.5 238.3 582.5 216 582.5 193.65 566.7 177.85 550.85 162 528.5 162 506.2 162 490.4 177.8 M 528.5 216.05 L 528.5 216 528.55 216 528.5 216.05 Z"/></svg>