<svg xmlns="http://www.w3.org/2000/svg" viewBox="0 0 1000 1000"><path fill="#900" d="M 0 100 Q 0 102.6 0.15 105.1 0.7 117.95 4.2 129.6 11.1 152.5 29.25 170.65 40.95 182.35 54.5 189.35 64.45 194.5 75.35 197.15 L 75.35 576.25 Q 75.85 596.1 90.1 610.3 104.8 624.95 129.05 624.95 147.2 623.7 160.55 610.4 174.8 596.2 175.3 576.35 L 175.3 150 Q 175.25 129.3 160.55 114.65 145.85 100 125.3 100 L 0 100 M 856.4 0.2 Q 856.45 0.1 856.55 0 L 471.1 0 Q 466.95 0 462.95 0.65 453.4 2.2 444.85 7.45 420.25 22.6 397.35 42 383.7 53.55 370.65 66.6 290.15 147.1 265.95 250.95 L 266 250.95 Q 255.4 295.75 255.35 344.95 255.35 365.65 270 380.3 284.65 394.95 305.35 394.95 L 864.05 394.95 Q 900.25 458.75 900 537.65 900.2 667.95 820.2 765 808 779.85 793.9 793.9 687.8 900 537.65 900 387.5 900 281.4 793.9 277.1 789.65 273.1 785.35 L 273.05 785.35 Q 263.65 775.35 255.15 765.05 L 255.15 765 Q 239.7 746.25 227.85 727.2 221.7 714.4 213.5 706.2 198.7 691.4 177.8 691.4 156.95 691.4 142.05 706.2 133.85 714.45 130.25 724.55 129.9 725.45 129.6 726.35 127.3 733.65 127.3 741.9 127.3 750.25 129.7 757.7 129.95 758.15 130.25 758.65 133.6 764.7 137.15 770.75 138.5 773 139.9 775.25 155.7 801.15 175.35 825.45 176.65 827 177.95 828.6 188.6 841.5 200.35 854 L 200.35 853.95 Q 205.35 859.3 210.7 864.6 275.85 929.75 354 963.55 438.25 1000 537.65 1000 637.05 1000 721.3 963.55 799.45 929.75 864.6 864.65 L 864.6 864.6 Q 882.15 847.1 897.35 828.65 L 897.4 828.6 Q 999.8 704.35 1000 537.65 999.75 413.2 932.75 316.5 925.65 306.35 914.8 300.65 903.9 294.95 891.65 294.95 L 359.15 294.95 Q 360.85 284.25 363.3 273.9 L 363.3 273.85 Q 381.65 197.05 441.35 137.3 L 441.4 137.3 Q 446.15 132.5 451 128 456.9 122.55 462.95 117.5 474.2 108.1 485.95 100 L 726.1 100 Q 726.2 100 726.3 100 729.25 100 732.15 99.65 744.5 98.25 754.55 91.05 777.9 76.45 799.65 58.05 813.3 46.5 826.35 33.45 842.5 17.3 856.4 0.2 M 553.2 164.65 Q 538.55 150 517.85 150 497.2 150 482.55 164.6 L 482.45 164.65 Q 467.85 179.35 467.85 200 467.85 220.7 482.5 235.35 497.15 250 517.85 250 538.5 250 553.15 235.35 553.2 235.35 553.25 235.3 567.85 220.65 567.85 200 567.85 179.3 553.2 164.65 M 517.85 200.05 L 517.85 200 517.9 200 517.85 200.05 M 687.5 150 Q 666.85 150 652.2 164.6 L 652.1 164.65 Q 637.5 179.35 637.5 200 637.5 220.7 652.15 235.35 666.8 250 687.5 250 708.15 250 722.8 235.35 722.85 235.35 722.9 235.3 737.5 220.65 737.5 200 737.5 179.3 722.85 164.65 708.2 150 687.5 150 M 687.5 200.05 L 687.5 200 687.55 200 687.5 200.05 Z"/></svg>