<svg xmlns="http://www.w3.org/2000/svg" viewBox="0 0 24 24"><path fill="#F03" d="M 11.45 5.65 Q 11.8 6 12.3 6 12.8 6 13.15 5.65 13.5 5.3 13.5 4.8 13.5 4.3 13.15 3.95 12.8 3.6 12.3 3.6 11.8 3.6 11.45 3.95 11.1 4.3 11.1 4.8 11.1 5.3 11.45 5.65 M 16.5 6 Q 17 6 17.35 5.65 17.7 5.3 17.7 4.8 17.7 4.3 17.35 3.95 17 3.6 16.5 3.6 16 3.6 15.65 3.95 15.3 4.3 15.3 4.8 15.3 5.3 15.65 5.65 16 6 16.5 6 M 22.35 7.6 Q 22.2 7.35 21.95 7.2 21.7 7.05 21.4 7.05 L 8.5 7.05 Q 8.55 6.8 8.6 6.55 9.05 4.75 10.45 3.3 10.55 3.2 10.7 3.05 10.85 2.95 11 2.8 11.25 2.6 11.55 2.4 L 17.4 2.4 Q 17.5 2.4 17.55 2.4 17.85 2.35 18.1 2.2 18.65 1.85 19.2 1.4 19.5 1.1 19.8 0.8 20.2 0.4 20.55 0 L 11.15 0 Q 11.05 0 11 0 10.75 0.05 10.55 0.2 9.95 0.55 9.4 1 9.05 1.3 8.75 1.6 6.85 3.55 6.25 6 6 7.1 6 8.25 6 8.75 6.35 9.1 6.7 9.45 7.2 9.45 L 20.75 9.45 Q 21.6 11 21.6 12.9 21.6 16 19.65 18.35 19.4 18.7 19.05 19.05 16.5 21.6 12.9 21.6 9.3 21.6 6.75 19.05 6.65 18.95 6.55 18.85 6.3 18.6 6.1 18.35 5.1 17.1 4.6 15.6 4.25 14.4 4.2 13.1 L 4.2 1.2 Q 4.2 0.7 3.85 0.35 3.5 0 3 0 L 0 0 Q 0 0.05 0 0.1 0 0.45 0.1 0.7 0.25 1.25 0.7 1.7 1 1.95 1.3 2.15 1.55 2.25 1.8 2.35 L 1.8 13.1 Q 1.85 14.8 2.3 16.3 2.9 18.25 4.25 19.9 4.5 20.2 4.8 20.5 4.95 20.6 5.05 20.75 6.6 22.3 8.5 23.1 10.5 24 12.9 24 15.3 24 17.3 23.1 19.2 22.3 20.75 20.75 21.15 20.3 21.5 19.9 L 21.55 19.9 Q 24 16.9 24 12.9 24 9.9 22.35 7.6 Z"/></svg>