<svg xmlns="http://www.w3.org/2000/svg" viewBox="0 0 24 24"><path fill="#FFF" d="M16.25 1.75q-.85-.8-1.9-1.3Q13.2 0 12 0q-1.2 0-2.35.45-1.05.5-1.9 1.3-.8.85-1.3 1.9Q6 4.8 6 6q0 1.2.45 2.35.5 1.05 1.3 1.9.85.8 1.9 1.3Q10.8 12 12 12q1.2 0 2.35-.45 1.05-.5 1.9-1.3.8-.85 1.3-1.9Q18 7.2 18 6q0-1.2-.45-2.35-.5-1.05-1.3-1.9m7.3 15.65q-.07011719-.17148437-.15-.35v6.25q.6-.6375.6-1.55V19.8q0-1.25-.45-2.4m-2.9-3.15q-.15-.1-.3-.15-1.1-.5-2.35-.55h-1.5l-2.25 8.95-1.5-6.35 1.5-2.65h-4.5l1.5 2.65-1.5 6.35-2.25-8.95H6q-1.25.05-2.35.55-1.05.5-1.9 1.35-.85.85-1.3 1.95Q0 18.55 0 19.8v1.95q0 .95.65 1.6.65.65 1.6.65h19.5q.95 0 1.6-.65l.05-.05v-6.25q-.43242187-.88242188-1.15-1.6-.65-.65-1.45-1.1-.05-.05-.15-.1Z"/></svg>