<svg xmlns="http://www.w3.org/2000/svg" viewBox="0 0 24 24"><path fill="#FFF" d="M22.5 2.25q0-.95-.65-1.6Q21.2 0 20.25 0h-18Q1.3 0 .65.65 0 1.3 0 2.25v19.5q0 .95.65 1.6.65.65 1.6.65h18q.95 0 1.6-.65.65-.65.65-1.6V19.5h.95q.2 0 .4-.15.15-.2.15-.4v-1.9q0-.2-.15-.4-.2-.15-.4-.15h-.95v-3h.95q.2 0 .4-.15.15-.2.15-.4v-1.9q0-.2-.15-.4-.2-.15-.4-.15h-.95v-3h.95q.2 0 .4-.15.15-.2.15-.4v-1.9q0-.2-.15-.4-.2-.15-.4-.15h-.95V2.25M11.25 4.5q1.55 0 2.6 1.15Q15 6.7 15 8.25t-1.15 2.65Q12.8 12 11.25 12T8.6 10.9Q7.5 9.8 7.5 8.25q0-1.55 1.1-2.6Q9.7 4.5 11.25 4.5M8.6 13.9h.35q1.1.5 2.3.5 1.2 0 2.3-.5h.3q1.65 0 2.85 1 1.1 1 1.1 2.35v1.15q0 .4-.35.8-.4.3-.95.3H6q-.55 0-.95-.3-.35-.4-.35-.8v-1.15q0-1.35 1.1-2.35 1.2-1 2.8-1Z"/></svg>