<svg xmlns="http://www.w3.org/2000/svg" viewBox="0 0 24 24"><path fill="#FFF" d="M23.05 6.35q-.9-1.95-2.55-3.4T16.7.75Q14.5 0 12 0 9.55 0 7.3.95q-2.15.9-3.8 2.55T.95 7.3Q0 9.55 0 12t.95 4.65q.9 2.15 2.55 3.8 1.65 1.7 3.8 2.6Q9.55 24 12 24q1.75 0 3.4-.5 1.7-.5 3.15-1.45.4-.3.5-.8.1-.5-.25-.9l-.5-.6q-.25-.35-.7-.45-.45-.05-.8.2-1.1.65-2.3 1.05-1.25.35-2.5.35-1.8 0-3.5-.7-1.55-.7-2.8-1.9-1.25-1.25-1.9-2.85-.7-1.65-.7-3.45 0-1.8.7-3.5.65-1.55 1.9-2.8 1.25-1.25 2.8-1.9 1.7-.7 3.5-.7t3.4.5q1.65.5 2.85 1.5 1.25 1 1.95 2.45.7 1.45.7 3.3 0 1.5-.75 2.65-.8 1.25-2.1 1.4-.55-.05-.7-.45-.05-.3.05-1.05l1.15-5.85q.1-.55-.25-.95-.35-.4-.9-.4h-2.15q-.25 0-.45.15t-.2.4q-.5-.55-1.35-.85-.7-.2-1.55-.2-1.35 0-2.6.55-1.2.55-2.1 1.5-.95 1-1.45 2.35Q5 11.45 5 13.05q0 2.35 1.25 3.75 1.25 1.35 3.4 1.35 1 0 2-.5t1.65-1.35q.3 1.1 1.35 1.45.4.15 1 .2h1.05q3.7 0 5.65-2.2.8-.95 1.25-2.25.4-1.25.4-2.65 0-2.45-.95-4.5m-11 2.9q.8 0 1.25.5.45.5.45 1.45 0 1.5-.95 2.6-.45.4-.95.7-.45.2-.9.2-.8 0-1.3-.5-.45-.55-.45-1.45 0-1.55.9-2.6.4-.45.9-.7.5-.2 1.05-.2Z"/></svg>