<svg xmlns="http://www.w3.org/2000/svg" viewBox="0 0 24 24"><path fill="#FFF" d="M9.7 22.1v.4q-.45 0-.45.35v.75q.05.4.45.4h4.6q.4 0 .45-.4v-.75q0-.35-.45-.35v-.4q0-.4-.45-.4h-3.8q-.35 0-.35.4m7.35-19.2q-.1-.25-.25-.4-.15-.2-.4-.25-.2-.15-.45-.15h-.15q-.3-.45-.7-.85-.6-.6-1.4-.9Q12.9 0 12 0q-.85 0-1.65.35-.75.3-1.35.9-.4.4-.65.9-.15-.05-.25-.05-.25 0-.45.15-.25.05-.4.25-.15.15-.3.4-.1.2-.1.4 0 .3.1.5l.3.4.2.2q-.1.05-.2.15-.15.15-.3.4-.1.2-.1.45t.1.45q.15.25.3.4l.1.1-.1.1q-.15.15-.3.4-.1.2-.1.45t.1.45q.15.25.3.4.15.15.4.25.2.1.45.1.3 0 .5-.1t.4-.25q.15-.15.25-.4 0-.05.05-.1.5.4 1.05.65.8.35 1.65.35.9 0 1.7-.35.6-.25 1.1-.6v.05q.1.25.25.4.15.15.4.25.2.1.5.1.25 0 .45-.1.25-.1.4-.25.15-.15.25-.4.1-.2.1-.45t-.1-.45q-.1-.25-.25-.4l-.1-.1.1-.1q.15-.15.25-.4.1-.2.1-.45t-.1-.45q-.1-.25-.25-.4-.1-.1-.2-.15l.2-.2q.15-.2.25-.4t.1-.5q0-.2-.1-.4m7 17.85q-3.2-7.5-3.45-8.15-.3-.65-.7-1.2-.25-.25-.4-.45-.75-.75-1.7-1.2-.95-.35-2-.45L12 13 8.3 9.3q-1.1.1-2.1.45-.9.45-1.6 1.2-.15.2-.4.45-.45.55-.7 1.2-.25.7-3.55 8.15h24.1M10.1 15.2q-.1-.15-.1-.3v-.6q0-.25.25-.4.1-.1.25-.1h3.35q.25 0 .35.15.1.1.1.35v.6q0 .15-.1.3-.1.1-.35.1h-.15v3.05h.15q.25 0 .35.1.1.15.1.35v.6q0 .25-.1.35-.1.1-.35.1H10.5q-.15 0-.25-.1-.25-.1-.25-.35v-.55q0-.25.25-.4.1-.1.25-.1h.15V17.3h-2.1v.15q0 .25-.15.4-.25.2-.45.2H4.8q-.2 0-.35-.2-.25-.15-.25-.4v-1.2q0-.3.25-.45.15-.2.35-.2h3.15q.2 0 .45.2.15.15.15.45v.15h2.1v-1.1h-.15q-.15 0-.4-.1Z"/></svg>