<svg xmlns="http://www.w3.org/2000/svg" viewBox="0 0 24 24"><path fill="#600" d="M 7.35 15.45 Q 7 15.45 6.6 15.4 L 6.6 24 8.1 22.55 8.1 15.45 Q 7.7 15.45 7.35 15.45 M 17.4 11.55 Q 17 11.55 16.65 11.55 16.3 11.55 15.9 11.55 L 15.9 14.9 8.1 7.05 6.6 8.5 6.6 12.45 Q 7 12.5 7.35 12.5 7.7 12.5 8.1 12.45 L 8.1 9.1 15.9 16.95 17.4 15.5 17.4 11.55 M 12.55 2.15 Q 12.3 1.9 12 1.65 10.3 0.25 8.1 0.05 7.7 0 7.35 0 7 0 6.6 0.05 4.4 0.25 2.7 1.65 2.4 1.9 2.15 2.15 1.9 2.4 1.65 2.7 0 4.7 0 7.35 0 10 1.65 12 1.9 12.3 2.15 12.55 2.4 12.8 2.7 13.05 4.1 14.2 5.9 14.55 6.25 14.65 6.6 14.65 7 14.7 7.35 14.7 7.7 14.7 8.1 14.65 8.45 14.65 8.8 14.55 9.25 14.5 9.65 14.35 10.6 14.05 11.4 13.5 L 10.35 12.4 Q 9.65 12.85 8.8 13.05 8.45 13.15 8.1 13.2 7.7 13.25 7.35 13.25 7 13.25 6.6 13.2 6.25 13.15 5.9 13.05 5.05 12.85 4.35 12.4 4.05 12.25 3.75 12 3.45 11.75 3.2 11.5 2.95 11.25 2.7 10.95 1.45 9.4 1.45 7.35 1.45 5.3 2.7 3.75 2.9 3.45 3.2 3.2 3.45 2.95 3.75 2.7 4.05 2.45 4.35 2.3 5.05 1.85 5.9 1.65 6.25 1.55 6.6 1.5 7 1.45 7.35 1.45 7.7 1.45 8.1 1.5 8.45 1.55 8.8 1.65 10 1.9 10.95 2.7 11.25 2.95 11.5 3.2 11.8 3.45 12 3.75 12.25 4.05 12.4 4.35 L 13.5 3.25 Q 13.3 3 13.05 2.7 12.8 2.4 12.55 2.15 M 17.4 0 L 15.9 1.45 15.9 8.6 Q 16.3 8.55 16.65 8.55 17 8.55 17.4 8.6 L 17.4 0 M 21.85 11.45 Q 21.6 11.2 21.3 10.95 19.9 9.75 18.1 9.45 17.75 9.35 17.4 9.35 17 9.3 16.65 9.3 16.3 9.3 15.9 9.35 15.55 9.35 15.2 9.45 14.75 9.5 14.35 9.65 13.4 9.95 12.6 10.5 L 13.65 11.6 Q 14.35 11.15 15.2 10.95 15.55 10.85 15.9 10.8 16.3 10.8 16.65 10.8 17 10.8 17.4 10.8 17.75 10.85 18.1 10.95 18.95 11.15 19.65 11.6 19.95 11.75 20.25 12 20.55 12.25 20.8 12.5 21.05 12.75 21.3 13.05 22.55 14.6 22.55 16.65 22.55 18.7 21.3 20.25 21.1 20.55 20.8 20.8 20.55 21.05 20.25 21.3 19.95 21.55 19.65 21.75 18.95 22.15 18.1 22.35 17.75 22.45 17.4 22.5 17 22.55 16.65 22.55 16.3 22.55 15.9 22.5 15.55 22.45 15.2 22.35 14 22.1 13.05 21.3 12.75 21.05 12.5 20.8 12.2 20.55 12 20.25 11.75 19.95 11.6 19.65 L 10.5 20.7 Q 10.7 21 10.95 21.3 11.2 21.6 11.45 21.85 11.7 22.1 12 22.35 13.7 23.75 15.9 23.95 16.3 24 16.65 24 17 24 17.4 23.95 19.6 23.75 21.3 22.35 21.6 22.1 21.85 21.85 22.1 21.6 22.35 21.3 24 19.35 24 16.65 24 14 22.35 12 22.1 11.7 21.85 11.45 Z"/></svg>