<svg xmlns="http://www.w3.org/2000/svg" viewBox="0 0 24 24"><path fill="#FFF" d="M 6.1 6.35 Q 3.8 6.35 2.15 7.45 -0.15 8.95 0 12.2 0 12.55 0.05 13.05 0.45 15.7 2.45 16.8 3.8 17.5 5.7 17.5 6.85 17.5 7.75 17.35 8.1 17.25 8.3 17.15 L 8.3 15.35 Q 8.1 15.45 7.65 15.6 6.75 15.9 6.05 15.9 4.8 15.9 3.75 15.15 2.35 14.1 2.3 12.2 2.3 10.1 3.45 9.05 4.4 8.15 5.85 8.15 6.9 8.15 7.75 8.45 8.1 8.65 8.3 8.8 L 8.3 6.9 Q 8.15 6.8 7.85 6.65 7.15 6.35 6.1 6.35 M 18.8 6.55 L 16.5 6.55 16.5 14.05 Q 16.35 13.95 16.05 13.7 15.5 13 14.9 11.95 14.3 11 13.55 10.05 12.45 8.8 11.35 8 10 7.05 8.9 6.9 L 8.9 17.25 11 17.25 11 10.35 11.9 11.2 Q 12.9 12.45 13.75 13.9 15.1 16 16.6 16.8 17.4 17.25 18.8 17.55 L 18.8 6.55 M 21.7 6.55 L 21.7 14.6 Q 21.7 15 21.4 15.3 20.8 15.85 19.4 15.6 L 19.4 17.55 Q 20.15 17.7 20.95 17.7 21.95 17.7 22.8 17.05 24 16.25 24 14.6 L 24 6.55 21.7 6.55 Z"/></svg>