<svg xmlns="http://www.w3.org/2000/svg" viewBox="0 0 24 24"><path fill="#FFF" d="M20.65 23.65q.35-.3.35-.75V7.5h-6.35q-.5 0-.8-.35-.35-.3-.35-.75V0H4.15q-.5 0-.8.35-.35.3-.35.8V22.9q0 .45.35.75.3.35.8.35H19.9q.45 0 .75-.35m-6.3-12.8q.05.1 0 .2l-2.85 9.9q-.05.1-.15.15-.05.05-.15.05l-1.3-.4q-.1 0-.15-.1-.05-.1-.05-.2l2.9-9.9q.05-.1.1-.15.1-.05.2-.05l1.3.4q.1 0 .15.1m-5.75 1.8q.1 0 .2.1l.9.95q.05.1.05.2t-.05.15l-1.95 1.7 1.95 1.7q.05.05.05.15 0 .1-.05.2l-.9 1q-.1.05-.2.05t-.2-.05l-3-2.85q-.1-.1-.1-.2t.05-.15l3.05-2.9q.1-.05.2-.05m10.2 3.1q0 .1-.05.15l-3.05 2.9q-.1.05-.2.05t-.2-.05l-.9-1q-.05-.1-.05-.2t.05-.15l1.95-1.7-1.95-1.7q-.05-.05-.05-.15 0-.1.05-.2l.9-.95q.1-.1.2-.1t.2.05l3 2.85q.1.1.1.2M21 5.7q0-.2-.1-.4-.05-.2-.25-.4L16.1.35q-.2-.2-.4-.25-.2-.1-.4-.1H15v6h6v-.3Z"/></svg>