<svg xmlns="http://www.w3.org/2000/svg" viewBox="0 0 24 24"><path fill="#21dc44" d="M 21 5.25 Q 21 4.3 20.35 3.65 19.7 3 18.75 3 L 15 3 Q 15 1.75 14.1 0.9 13.25 0 12 0 10.75 0 9.9 0.9 9 1.75 9 3 L 5.25 3 Q 4.3 3 3.65 3.65 3 4.3 3 5.25 L 3 21.75 Q 3 22.7 3.65 23.35 4.3 24 5.25 24 L 18.75 24 Q 19.7 24 20.35 23.35 21 22.7 21 21.75 L 21 5.25 M 16.2 6 Q 16.35 6 16.4 6.1 16.5 6.15 16.5 6.3 L 16.5 7.2 Q 16.5 7.35 16.4 7.4 16.35 7.5 16.2 7.5 L 7.8 7.5 Q 7.65 7.5 7.6 7.4 7.5 7.35 7.5 7.2 L 7.5 6.3 Q 7.5 6.15 7.6 6.1 7.65 6 7.8 6 L 16.2 6 M 12.8 2.2 Q 13.15 2.55 13.15 3 13.15 3.45 12.8 3.8 12.45 4.15 12 4.15 11.55 4.15 11.2 3.8 10.9 3.45 10.9 3 10.9 2.55 11.2 2.2 11.55 1.9 12 1.9 12.45 1.9 12.8 2.2 M 16.95 10.65 L 17.8 11.5 Q 18 11.7 18 11.95 18 12.15 17.8 12.35 L 10.9 19.25 Q 10.75 19.45 10.5 19.45 10.25 19.45 10.05 19.25 L 6.15 15.35 Q 6 15.15 6 14.95 6 14.7 6.15 14.5 L 7 13.65 Q 7.2 13.5 7.45 13.5 7.7 13.5 7.85 13.65 L 10.5 16.3 16.15 10.65 Q 16.3 10.5 16.55 10.5 16.8 10.5 16.95 10.65 Z"/></svg>