<svg xmlns="http://www.w3.org/2000/svg" viewBox="0 0 24 24"><path fill="#FFF" d="M6.05 20.25q.3.25.6.3h7.05l-4.45-5.7L6.05 19q-.3.25-.3.6 0 .4.3.65M5.2 9.15q-.9 0-1.45.7L.15 14.4q-.15.25-.15.45t.15.4l3.6 4.55q.25.4.6.55.4.2.85.2h.7q-.35-.05-.65-.3Q5 20 5 19.6q0-.35.2-.6l7.95-9.85H5.2M17.95 5q.25-.25.25-.6 0-.4-.25-.65-.3-.25-.6-.3H10.3l4.45 5.7L17.95 5M24 9.15q0-.2-.15-.4l-3.6-4.55q-.25-.4-.6-.55-.4-.2-.85-.2h-.7q.35.05.65.3.25.25.25.65 0 .35-.2.6l-7.95 9.85h7.95q.9 0 1.45-.7l3.6-4.55q.15-.25.15-.45Z"/></svg>