<svg xmlns="http://www.w3.org/2000/svg" viewBox="0 0 24 24"><path fill="#FFF" d="M16.25 7.75Q14.45 6 12 6 9.5 6 7.75 7.75q-1.2 1.2-1.6 2.75H17.8q-.35-1.55-1.55-2.75m7.7 2.75v-.15Q23.4 6.4 20.5 3.5 17 0 12.05 0q-5 0-8.5 3.5-2.95 3-3.4 7-.1.75-.1 1.5t.1 1.5q.15 1.6.75 3 .85 2.2 2.65 4 3.5 3.5 8.5 3.5 4.95 0 8.45-3.5 1.8-1.8 2.7-4 .55-1.4.75-3H6.2q.4 1.55 1.6 2.75l.25.25q1.7 1.5 4 1.5 2.25 0 3.95-1.5h3.85q-.6 1-1.45 1.85Q15.75 21 12.05 21q-3.75 0-6.4-2.65-.85-.85-1.45-1.85-.8-1.4-1.05-3-.1-.7-.1-1.5 0-.75.1-1.5.45-2.75 2.5-4.85Q8.3 3 12.05 3q3.7 0 6.35 2.65 2.1 2.1 2.5 4.85h3.05Z"/></svg>