<svg xmlns="http://www.w3.org/2000/svg" viewBox="0 0 24 24"><path fill="#FFF" d="M 24 11.55 Q 23.95 10.2 23.6 8.85 23.25 7.6 22.65 6.4 22.55 6.2 22.35 6.15 22.15 6.05 22 6.1 L 19.7 6.75 Q 18.7 5.3 17.25 4.3 L 17.9 2 Q 17.95 1.8 17.85 1.65 17.75 1.45 17.55 1.35 16.4 0.75 15.05 0.4 13.8 0.05 12.45 0 12.25 0 12.1 0.1 11.95 0.2 11.9 0.4 L 11.25 2.7 Q 9.55 2.85 7.95 3.6 L 6.3 1.9 Q 6.15 1.75 5.95 1.75 5.75 1.7 5.55 1.85 4.45 2.55 3.5 3.45 2.55 4.45 1.8 5.6 1.7 5.75 1.7 5.95 1.75 6.15 1.9 6.3 L 3.6 8 Q 2.85 9.55 2.7 11.3 L 0.4 11.9 Q 0.25 11.95 0.1 12.1 0 12.3 0 12.5 0.05 13.85 0.4 15.1 0.75 16.4 1.35 17.6 1.45 17.75 1.65 17.85 1.85 17.95 2 17.9 L 4.3 17.3 Q 5.35 18.7 6.75 19.65 L 6.1 21.95 Q 6.05 22.15 6.2 22.35 6.25 22.6 6.4 22.65 7.6 23.25 8.95 23.6 10.25 23.95 11.5 24 11.75 24.05 11.95 23.9 12.05 23.75 12.1 23.55 L 12.75 21.25 Q 14.5 21.15 16 20.45 L 17.7 22.1 Q 17.9 22.25 18.05 22.25 18.25 22.25 18.45 22.15 19.55 21.5 20.5 20.5 21.5 19.6 22.2 18.45 22.3 18.25 22.3 18.05 22.25 17.85 22.1 17.7 L 20.4 16.05 Q 21.15 14.45 21.3 12.75 L 23.6 12.1 Q 23.75 12.05 23.9 11.9 24 11.7 24 11.55 M 15.3 8.7 Q 16.65 10.05 16.65 12 16.65 13.95 15.3 15.3 13.95 16.65 12 16.65 10.05 16.65 8.7 15.3 7.35 13.95 7.35 12 7.35 10.05 8.7 8.7 10.05 7.35 12 7.35 13.95 7.35 15.3 8.7 Z">
<animateTransform attributeType="xml" attributeName="transform" type="rotate" from="0 12 12" to="360 12 12" dur="2.5s" additive="sum" repeatCount="indefinite" />
</path></svg>
