<svg xmlns="http://www.w3.org/2000/svg" viewBox="0 0 24 24"><path fill="#600" d="M10.55 10.65q-.15.25-.25.5-.05.1-.05.25-.1.45-.05.95 0 .15.05.3.1.4.3.75h2.9q.2-.35.3-.75.05-.15.05-.3.05-.5-.05-.95 0-.15-.05-.25-.1-.25-.25-.5h-2.9m11.1 8.5q.45-.6.9-1.45.3-.5.8-1.5-5.15-2.6-7.4-3.7-.1.95-.65 1.75t-1.35 1.25q-.7.4-1.45.5-.8.1-1.5-.1-.75-.2-1.35-.65-.6-.45-1.05-1.1-.45-.75-.55-1.6-.1-.9.15-1.7.2-.7.65-1.3Q9.3 9 9.9 8.6q.75-.45 1.65-.55.9-.1 1.75.2.7.25 1.35.75.55.55.95 1.25.4-.25 1.15-.6l1.2-.6q-.6-1.25-1.7-2.2-1.1-.9-2.45-1.25-1.15-.35-2.4-.2-1.2.1-2.3.6-1.3.65-2.35 1.9l-2.4-1.2q1.05-1.5 2.6-2.5t3.35-1.35q1.5-.25 3-.05t2.85.85q1.35.65 2.45 1.75 1.05 1.1 1.75 2.45l1-.5Q22 7 22.4 6.85q.25-.15.3-.2-1.05-2.15-2.9-3.75-1.85-1.6-4.15-2.3Q13.9.05 12.1 0q-1.85 0-3.55.55-1.9.55-3.55 1.7-1.6 1.15-2.75 2.8-.45.55-.85 1.35-.3.55-.7 1.45.8.4 2.4 1.25 1.65.8 2.45 1.2-.3 1.15-.2 2.35.15 1.2.65 2.25.45.95 1.15 1.7t1.65 1.25q1.1.65 2.4.8 1.3.15 2.5-.2.9-.2 1.7-.7.8-.45 1.4-1.1l.25-.25q.1-.15.25-.25l2.35 1.2q-1 1.5-2.6 2.5-1.55 1-3.35 1.35-1.25.2-2.5.1-1.3-.1-2.5-.55-1.65-.6-2.95-1.8-1.3-1.2-2.1-2.75-.45.2-1.2.6-.85.4-1.2.55 1.1 2.3 3.15 3.95 2 1.65 4.4 2.3 1.7.45 3.45.4 1.75 0 3.4-.55 1.8-.55 3.35-1.7 1.55-1.1 2.65-2.6Z"/></svg>