<svg xmlns="http://www.w3.org/2000/svg" viewBox="0 0 24 24"><path fill="#FFF" d="M 12.7 6.85 L 13.7 5.15 9.8 5.15 6.85 10.35 3.85 5.15 0 5.15 0.95 6.85 2.85 6.85 5.3 11.15 1.8 11.15 1.8 12.85 5.3 12.85 2.85 17.15 0.95 17.15 0 18.85 3.85 18.85 6.85 13.65 9.8 18.85 13.7 18.85 12.7 17.15 10.85 17.15 8.3 12.9 11.85 12.9 11.85 11.15 8.3 11.15 10.85 6.85 12.7 6.85 M 13.95 6.85 L 14.95 6.85 14.95 15.9 17 15.9 17 5.15 14.95 5.15 13.95 6.85 M 24 17.6 L 24 11.3 Q 24 10.1 22.7 10.1 L 20.2 10.1 20.2 7 24 7 24 6.85 23 5.15 18.25 5.15 18.25 11.85 22 11.85 22 17.15 13.95 17.15 14.95 18.85 22.7 18.85 Q 23.65 18.85 23.9 18.2 24 17.95 24 17.6 Z"/></svg>