<svg xmlns="http://www.w3.org/2000/svg" viewBox="0 0 24 24"><path fill="#FFF" d="M12 21.7q.75 0 1.25-.5.55-.55.55-1.3t-.55-1.25q-.5-.55-1.25-.55t-1.25.55q-.55.5-.55 1.25t.55 1.3q.5.5 1.25.5M5.35 7.15v3.6h2.1v2.15H4.5q-.95 0-.95-.9V4.9q0-.4.2-.65.2-.3.7-.3h3.9L11.2 0H2.85Q0 0 0 2.95V13.9q0 2.95 2.85 2.95H11v-9.7H5.35m7.9-4.35q-.5-.5-1.25-.5t-1.25.5q-.55.55-.55 1.3t.55 1.25q.5.55 1.25.55t1.25-.55q.55-.5.55-1.25t-.55-1.3M24 10.1q0-2.95-2.85-2.95h-8.2v9.7h5.7v-3.6h-2.1V11.1h2.95q.95 0 .95.9v7.1q0 .4-.2.65-.2.3-.65.3h-3.75L12.95 24h8.2Q24 24 24 21.05V10.1Z"/></svg>