<svg xmlns="http://www.w3.org/2000/svg" viewBox="0 0 24 24"><path fill="#FFF" d="M 23.05 7.4 Q 22.1 5.3 20.45 3.65 18.75 2.05 16.55 1.2 14.35 0.3 11.85 0.3 9.35 0.3 7.15 1.2 5 2.05 3.4 3.65 1.8 5.3 0.9 7.4 0 9.6 0 12.1 0 14.1 0.6 15.95 1.2 17.75 2.3 19.3 3.4 20.8 4.9 21.95 6.4 23.05 8.2 23.65 8.6 23.75 8.85 23.55 9.05 23.35 9.05 23.1 9 21.15 9 20.1 8.2 20.3 7.25 20.2 5.35 20.05 4.95 18.65 4.8 18.3 4.55 17.9 4.1 17.15 3.6 16.9 3.3 16.7 3.15 16.5 2.9 16.15 3.65 16.15 L 3.85 16.2 Q 4.1 16.25 4.35 16.35 5.1 16.7 5.5 17.4 6.2 18.6 7.4 18.75 8.2 18.8 9.05 18.4 9.15 17.85 9.35 17.45 9.55 17.05 9.85 16.8 8.5 16.65 7.85 16.45 6.8 16.2 6.1 15.75 4.4 14.55 4.4 11.45 4.4 10.5 4.65 9.85 4.9 9.25 5.55 8.6 5.35 8.1 5.3 7.45 5.25 6.35 5.65 5.3 6.3 5.1 7.7 5.85 8.4 6.2 9 6.6 10.45 6.2 12.05 6.2 13.6 6.2 15.1 6.6 L 15.45 6.35 Q 15.9 6.05 16.35 5.85 17.8 5.1 18.4 5.3 18.85 6.4 18.75 7.45 18.75 8.1 18.55 8.6 19.2 9.3 19.45 9.85 19.8 10.5 19.8 11.45 19.8 14.55 18.05 15.75 17.3 16.2 16.25 16.45 15.55 16.65 14.25 16.8 14.6 17.1 14.8 17.6 15.05 18.25 15.05 19.05 15.05 20.65 15.05 23.05 15.05 23.35 15.25 23.5 15.45 23.75 15.9 23.65 17.7 23.05 19.2 21.95 20.7 20.8 21.75 19.3 22.85 17.75 23.4 15.95 24 14.1 24 12.1 24 9.65 23.05 7.4 Z"/></svg>