<svg xmlns="http://www.w3.org/2000/svg" viewBox="0 0 24 24"><path fill="#FFF" d="M14.65 9.95q0-.4-.3-.65-.3-.3-.65-.3H8.45q-.4 0-.7.3-.25.25-.25.65v2.25q0 .35.25.65.3.25.7.25h.95v6.8h-.95q-.4 0-.7.25-.25.3-.25.65v2.25q0 .4.25.7.3.25.7.25h7.1q.4 0 .7-.25.25-.3.25-.7V20.8q0-.35-.25-.65-.3-.25-.7-.25h-.9V9.95m-.25-4.2q.45-.45.7-1.05.3-.65.3-1.3 0-.7-.3-1.35-.25-.6-.7-1.05-.5-.5-1.1-.75Q12.7 0 12 0q-.7 0-1.3.25-.6.25-1.1.75-.45.45-.7 1.05-.25.65-.25 1.35 0 .65.25 1.3.25.6.7 1.05.5.5 1.1.75.6.25 1.3.25 1.4 0 2.4-1Z"/></svg>