<svg xmlns="http://www.w3.org/2000/svg" viewBox="0 0 24 24"><path fill="#FFF" d="M24 12.3v-.6q0-.25-.15-.4-.2-.2-.45-.2H12.9V9.6h2.7q.5 0 .85-.35t.35-.85V3.6q0-.5-.35-.85t-.85-.35H8.4q-.5 0-.85.35t-.35.85v4.8q0 .5.35.85t.85.35h2.7v1.5H.6q-.25 0-.4.2-.2.15-.2.4v.6q0 .25.2.45.15.15.4.15h3.9v1.5H2.4q-.5 0-.85.35t-.35.85v4.8q0 .5.35.85t.85.35h6q.5 0 .85-.35t.35-.85v-4.8q0-.5-.35-.85t-.85-.35H6.3v-1.5h11.4v1.5h-2.1q-.5 0-.85.35t-.35.85v4.8q0 .5.35.85t.85.35h6q.5 0 .85-.35t.35-.85v-4.8q0-.5-.35-.85t-.85-.35h-2.1v-1.5h3.9q.25 0 .45-.15.15-.2.15-.45m-3.6 4.5v2.4h-3.6v-2.4h3.6m-6-12v2.4H9.6V4.8h4.8M7.2 19.2H3.6v-2.4h3.6v2.4Z"/></svg>