<svg xmlns="http://www.w3.org/2000/svg" viewBox="0 0 24 24"><path fill="#FFF" d="M23.65 22.35q.35-.35.35-.8 0-.45-.35-.8L19 16.05q-.15-.15-.35-.2-.25-.1-.45-.1h-.75q1-1.25 1.5-2.75.55-1.6.55-3.25 0-2-.75-3.8-.75-1.75-2.1-3.1t-3.1-2.1Q11.75 0 9.75 0q-2 0-3.8.75-1.75.75-3.1 2.1t-2.1 3.1Q0 7.75 0 9.75q0 2 .75 3.8.75 1.75 2.1 3.1t3.1 2.1q1.8.75 3.8.75 1.65 0 3.25-.55 1.5-.55 2.75-1.5v.75q0 .2.1.45.05.2.25.35l4.65 4.65q.35.35.8.35.45 0 .8-.35l1.3-1.3M15.3 7.4q.45 1.1.45 2.35 0 1.2-.45 2.35-.5 1.05-1.3 1.9-.85.8-1.9 1.25-1.15.5-2.35.5-1.2 0-2.35-.5Q6.35 14.8 5.5 14q-.8-.85-1.3-1.9-.45-1.15-.45-2.35 0-1.2.45-2.35.5-1.05 1.3-1.9.85-.8 1.9-1.3 1.15-.45 2.35-.45 1.2 0 2.35.45 1.05.45 1.9 1.3.8.85 1.3 1.9Z"/></svg>