<svg xmlns="http://www.w3.org/2000/svg" viewBox="0 0 24 24"><path fill="#FFF" d="M24 2.25q0-.95-.65-1.6-.7-.65-1.6-.65H2.25Q1.3 0 .65.65 0 1.3 0 2.25v15q0 .95.65 1.6.65.65 1.6.65h7.5L9 21.75H5.6q-.45 0-.75.3-.35.35-.35.8 0 .5.35.8.3.35.75.35h12.75q.5 0 .8-.35.35-.3.35-.8 0-.45-.35-.8-.3-.3-.8-.3H15l-.75-2.25h7.5q.95 0 1.6-.65.65-.65.65-1.6v-15M21 3v13.5H3V3h18m-10.35 8.15q.7 0 .7-.7v-1.4q0-.7-.7-.7h-5.6q-.7 0-.7.7v1.4q0 .7.7.7h5.6m2-.7q0 .7.7.7h5.6q.7 0 .7-.7v-1.4q0-.7-.7-.7h-5.6q-.7 0-.7.7v1.4m-1.3-5.5q0-.7-.7-.7h-5.6q-.7 0-.7.7v1.4q0 .75.7.75h5.6q.7 0 .7-.75v-1.4m8.3 0q0-.7-.7-.7h-5.6q-.7 0-.7.7v1.4q0 .75.7.75h5.6q.7 0 .7-.75v-1.4Z"/></svg>