<svg xmlns="http://www.w3.org/2000/svg" viewBox="0 0 24 24"><path fill="#fff" d="M3.05 14.6q0 .3.2.5t.5.2q.3 0 .5-.2t.2-.5q0-.3-.2-.5t-.5-.2q-.3 0-.5.2t-.2.5M9.2 3.3q-.5-.5-1.2-.8-.7-.3-1.45-.3t-1.45.3q-.7.3-1.2.8t-.8 1.2q-.3.7-.3 1.45t.3 1.45q.3.65.8 1.2.5.5 1.2.8.7.3 1.45.3T8 9.4q.7-.3 1.2-.8.5-.55.8-1.2.3-.7.3-1.45T10 4.5q-.3-.7-.8-1.2m2.8 8.55q-.5-.55-1.15-.85-.7-.35-1.5-.35v1.4q.8.2 1.35.8.55.65.55 1.5v1.25q0 .15-.1.3-.15.1-.3.15l-.95.2q-.1 0-.15-.05-.1-.05-.1-.15l-.1-.45q0-.1.05-.2.05-.05.15-.1l.55-.1v-.85q0-.65-.45-1.05-.4-.35-.95-.35-.6 0-.95.35-.45.4-.45 1.1v.8l.55.1q.1.05.15.1.05.1.05.2l-.1.45q0 .1-.1.15-.1.05-.2.05l-.9-.15q-.15 0-.3-.15-.1-.15-.1-.3v-1.3q0-.85.55-1.5.5-.6 1.35-.8v-1.3h-.1l-.1.05q-.85.3-1.7.3t-1.65-.3q-.3-.1-.7-.15v2.4q.55.15.85.55.35.45.35 1 0 .65-.5 1.15-.45.5-1.15.5t-1.15-.5q-.5-.5-.5-1.15 0-.55.35-1 .3-.4.85-.55V10.7q-.7.1-1.3.45-.6.35-1.05.85-.45.55-.7 1.15-.25.7-.25 1.4v1.3q0 .55.4.95.35.35.9.35h10.5q.55 0 .9-.35.4-.4.4-.95v-1.3q0-.8-.3-1.5-.25-.65-.8-1.2m11.7 7.65q-.3-.7-.85-1.2-.55-.55-1.25-.85-.75-.35-1.55-.35h-.45q-1.05.5-2.15.5-1.1 0-2.15-.5h-.5q-.8 0-1.5.35-.7.3-1.25.85-.55.5-.85 1.2-.3.75-.3 1.55 0 .3.2.55.25.2.55.2h11.6q.3 0 .55-.2.2-.25.2-.55 0-.8-.3-1.55m-2.95-5.3q.3-.6.4-1.3h-7.4q.1.7.4 1.3.3.6.8 1.05.5.45 1.15.7.65.25 1.35.25.7 0 1.35-.25.6-.25 1.1-.7.5-.45.85-1.05m.65-2.2q.1 0 .2-.1.05-.05.05-.15v-.95q0-.1-.05-.15-.1-.05-.2-.05h-.2q0-1-.55-1.85-.55-.8-1.45-1.2l-.8 1.6V7.3q0-.2-.15-.35-.15-.1-.35-.1H17q-.2 0-.35.1-.15.15-.15.35v1.85l-.8-1.6q-.9.4-1.45 1.2-.55.85-.55 1.85h-.25q-.1 0-.15.05-.05.05-.05.15v.95q0 .1.05.15.05.1.15.1h7.95Z"/></svg>