<svg xmlns="http://www.w3.org/2000/svg" viewBox="0 0 24 24"><path fill="#FFF" d="M17.55 8.35Q18 7.2 18 6q0-1.2-.45-2.35-.5-1.05-1.3-1.9-.85-.8-1.9-1.3Q13.2 0 12 0q-1.2 0-2.35.45-1.05.5-1.9 1.3-.8.85-1.3 1.9Q6 4.8 6 6q0 1.2.45 2.35.5 1.05 1.3 1.9.85.8 1.9 1.3Q10.8 12 12 12q1.2 0 2.35-.45 1.05-.5 1.9-1.3.8-.85 1.3-1.9m4.45 9q-.45-1.15-1.35-2-.85-.85-2-1.35-1.15-.5-2.45-.5h-.8q-1.6.75-3.4.75-1.8 0-3.4-.75h-.8q-1.3 0-2.45.5-1.15.5-2 1.35-.9.85-1.35 2-.5 1.15-.5 2.45v1.95q0 .95.65 1.6.65.65 1.6.65h16.5q.95 0 1.6-.65.65-.65.65-1.6V19.8q0-1.3-.5-2.45Z"/></svg>