<svg xmlns="http://www.w3.org/2000/svg" viewBox="0 0 24 24"><path fill="#999" d="M.95 5.25q-.4 0-.7.3Q0 5.8 0 6.2v12.55h.25q.9 0 1.5-.65.65-.6.65-1.5v-2.7h3.05q2.1 0 3.25-1.35 1-1.15 1-3 0-1.75-1-2.95-1.15-1.35-3.25-1.35H.95m1.45 6.5V7.4h3q.95 0 1.45.7.5.6.5 1.45 0 .95-.5 1.55-.5.65-1.5.65H2.4m9.2-5.8q-.65.7-.65 1.7v6.6q0 1-.45 1.55-.5.65-1.5.65-.65 0-1.1.45-.5.4-.55 1.05-.05.2.1.4.1.2.3.25.7.15 1.25.15 2.25 0 3.35-1.35.95-1.15.95-3.15v-9q-1 0-1.7.7Z"/><path fill="#F63" d="M24 11.3q0-2.1-1.35-3.4-1.3-1.3-3.3-1.3-2.05 0-3.4 1.3-1.4 1.35-1.4 3.45 0 2.15 1.35 3.5 1.35 1.3 3.45 1.3 1.85.05 3.25-1.1l.2-.15q.25-.35.2-.75-.05-.45-.4-.7-.25-.2-.55-.2-.35 0-.6.2-.85.65-2 .65-1 0-1.7-.5-.65-.5-.85-1.45h7.05l.05-.85m-3.05-2.15q.65.5.8 1.45h-4.9q.4-2 2.5-2 1 0 1.6.55Z"/></svg>