<svg xmlns="http://www.w3.org/2000/svg" viewBox="0 0 24 24"><path fill="#FFF" d="M 22.6 1.25 Q 22.25 1.3 22 1.6 L 20.3 3.3 Q 18.65 1.75 16.55 0.9 14.35 0 12 0 9.55 0 7.35 0.95 5.2 1.85 3.5 3.5 1.85 5.15 0.95 7.3 0 9.55 0 12 0 14.45 0.95 16.65 1.85 18.8 3.5 20.45 5.15 22.15 7.3 23.05 9.55 24 12 24 14.25 24 16.35 23.15 18.4 22.35 20.05 20.9 20.2 20.75 20.2 20.5 20.25 20.25 20.05 20.05 L 18.15 18.15 Q 17.95 17.95 17.75 17.95 17.5 17.95 17.35 18.1 16.25 19.1 14.85 19.6 13.5 20.1 12 20.1 10.3 20.1 8.8 19.45 7.35 18.85 6.25 17.75 5.1 16.6 4.5 15.15 3.85 13.7 3.85 12.05 3.85 10.35 4.5 8.8 5.1 7.35 6.25 6.2 7.4 5.1 8.9 4.45 10.4 3.85 12.05 3.85 13.6 3.85 15 4.45 16.4 5 17.55 6.05 L 15.5 8.05 Q 15.25 8.35 15.2 8.7 15.15 9 15.25 9.35 15.4 9.65 15.65 9.85 15.95 10.05 16.35 10.05 L 22.85 10.05 Q 23.3 10.05 23.65 9.7 24 9.35 24 8.9 L 24 2.4 Q 24 2.05 23.8 1.75 23.6 1.45 23.25 1.35 22.95 1.2 22.6 1.25 Z"/></svg>