<svg xmlns="http://www.w3.org/2000/svg" viewBox="0 0 24 24"><path fill="#F63" d="M10 16.4v4.45q0 .7.2 1.25.25.6.65 1t1 .65q.55.25 1.3.25t1.3-.25q.6-.25 1-.65t.65-1q.2-.55.2-1.25V16.4h-1.5v4.45q0 .45-.1.8-.1.3-.3.55-.25.25-.55.35-.3.15-.7.15-.4 0-.7-.15-.3-.1-.5-.35-.25-.25-.35-.55-.1-.35-.1-.8V16.4H10m-1.15 0h-1.5v4.85q0 .4-.05.7-.05.3-.15.45-.1.2-.25.3-.2.05-.4.05h-.3q-.1-.05-.15-.05-.15 0-.25.05-.1.1-.1.2l-.05.9.5.1q.25.05.5.05.55 0 .95-.2.45-.2.7-.55.3-.4.4-.9.15-.5.15-1.15v-4.8m13 .25q-.7-.25-1.5-.25H17.6v7.5h2.75q.8 0 1.5-.3.65-.25 1.15-.75.45-.5.75-1.2.25-.7.25-1.5 0-.85-.25-1.5-.3-.7-.75-1.2-.5-.5-1.15-.8m-.6 1.1q.4.15.65.5.3.35.45.8.1.5.1 1.1 0 .6-.1 1.05-.15.5-.45.85-.25.3-.65.5-.4.15-.9.15H19.1v-5.15h1.25q.5 0 .9.2Z"/><path fill="#E1E1E1" d="M4.8.8Q4.4.4 3.85.2 3.3 0 2.65 0q-.55 0-1 .2Q1.2.35.9.65.6 1 .45 1.4q-.15.35-.15.8 0 .5.15.85.1.35.35.6.2.25.5.35.3.15.6.25l.6.2q.3.1.5.2.25.15.4.3.1.2.1.5 0 .5-.25.75-.3.25-.8.25-.35 0-.6-.1t-.45-.2Q1.2 6 1.05 5.9q-.15-.1-.3-.1-.1 0-.15.05Q.5 5.9.45 6L0 6.7q.2.2.5.4.25.2.6.3.3.15.65.2.3.1.65.1.6 0 1.05-.2.5-.2.8-.55.35-.3.5-.75.15-.45.15-.95 0-.5-.15-.8-.1-.35-.35-.55-.25-.25-.5-.4-.3-.15-.6-.25l-.6-.2q-.3-.1-.55-.25-.2-.1-.35-.25-.15-.2-.15-.45 0-.4.25-.65.3-.25.8-.25.25 0 .5.1.2.05.4.15l.3.2q.1.05.2.05t.2-.05l.15-.15.35-.7M7.55.1h-1.5v7.5h1.5V.1m8.15 8.2h-1.55l-2.7 7.5h1.15q.2 0 .3-.1.15-.1.2-.25l.45-1.45h2.75l.5 1.45q.05.15.15.25.15.1.35.1h1.1l-2.7-7.5m-1.05 2.25q.05-.15.15-.4l.1-.5q.1.3.15.5.1.25.15.4l.8 2.4h-2.1l.75-2.4m-4.5 1.05q.2-.15.35-.35.2-.25.25-.45.05-.25.05-.5 0-.5-.15-.85t-.45-.65q-.35-.25-.85-.4-.5-.1-1.25-.1H5.55v7.5h2.8q.65 0 1.15-.2.5-.15.8-.45.35-.3.55-.7.15-.4.15-.9 0-1.3-1.45-1.65.35-.1.6-.3m-3.1-.1V9.4H8.1q.65 0 .95.25.3.25.3.8t-.35.8q-.35.25-.95.25h-1m1.85 1.1q.25.05.4.2l.2.3q.05.2.05.45 0 .2-.05.4t-.2.35q-.15.15-.4.25-.2.1-.55.1h-1.3V12.5H8.3q.35 0 .6.1M13 1.5l.35-.7q-.4-.4-.95-.6-.55-.2-1.2-.2-.55 0-1 .2-.45.15-.75.45-.3.35-.45.75-.15.35-.15.8 0 .5.1.85.15.35.4.6.2.25.5.35.3.15.6.25l.6.2q.3.1.5.2.25.15.35.3.15.2.15.5 0 .5-.25.75-.3.25-.8.25-.35 0-.6-.1t-.45-.2Q9.7 6 9.6 5.9q-.15-.1-.3-.1-.1 0-.15.05-.1.05-.15.15l-.45.7q.2.2.5.4.25.15.55.3.35.15.65.2.35.1.7.1.6 0 1.05-.2.5-.2.8-.55.3-.3.5-.75.15-.45.15-.95 0-.5-.15-.8-.1-.35-.35-.55-.25-.25-.5-.4-.3-.15-.6-.25l-.6-.2q-.3-.1-.55-.25-.2-.1-.35-.25-.15-.2-.15-.45 0-.4.25-.65.3-.25.8-.25.25 0 .5.1.2.05.4.15.15.1.25.2.15.05.25.05t.2-.05L13 1.5Z"/></svg>