<svg xmlns="http://www.w3.org/2000/svg" viewBox="0 0 24 24"><path fill="#FFF" d="M3.6 1.8q0-.75-.55-1.25Q2.55 0 1.8 0T.55.55Q0 1.05 0 1.8v2.4q0 .25.2.45.15.15.4.15h3v-3m20.2 17.6q-.15-.2-.4-.2H10.8v1.2q0 .75-.3 1.4-.25.65-.75 1.15-.5.5-1.15.75-.609375.28125-1.25.3H19.8q.85 0 1.65-.35.75-.3 1.3-.9.6-.55.9-1.3.35-.8.35-1.65 0-.25-.2-.4M20.4 18V3.6q0-.75-.3-1.4-.25-.65-.75-1.15-.5-.5-1.15-.75-.65-.3-1.4-.3H4.2q.25.4.45.85.15.45.15.95v18.6q0 .55.25 1 .2.5.6.85.4.3.9.45.5.15 1.05.05.85-.1 1.45-.85.55-.7.55-1.65V18h10.8M16.85 3.6q.35.15.6.4.25.3.4.6.15.3.15.65.05.8-.6 1.4l-4.5 4.1-2.2-2.2 4.1-4.45q.6-.7 1.4-.65.35 0 .65.15M10.2 9.05l2.25 2.2-.75 1.9q-.05.15-.2.3-.1.1-.25.15l-4 1.3-.1-.1 2.1-2.05h.15q.3 0 .55-.2.2-.2.2-.5t-.2-.5q-.25-.2-.55-.2-.3 0-.5.2t-.2.5v.1l.05.05-2.1 2.1-.1-.1 1.3-3.95.2-.3q.1-.1.3-.15l1.85-.75Z"/></svg>