<svg xmlns="http://www.w3.org/2000/svg" viewBox="0 0 24 24"><path fill="#2A5683" d="M17.2 10.85q0-1.55-1.4-1.55h-4.3v8.35h1.8V14.4H15q.45 0 .45.5v2.75h1.75V14.7q.05-1-.9-1.2.9-.2.9-1.35v-1.3m-3.9.55H15q.45 0 .45.5v.2q0 .45-.45.45h-1.7V11.4m-7.4 6.7v-4H2.95v4q0 1.2-.85 2.1-.85.85-2.1.85V24q2.45 0 4.2-1.75 1.7-1.7 1.7-4.15M4.45 5.2H1.5v2.95h3.25q1.1.15 1.9 1 .75.85.75 1.95v6.55h2.95V11.1q0-2.45-1.7-4.15Q6.9 5.2 4.45 5.2m6.65-3q0-.9-.65-1.55T8.85 0q-.9 0-1.55.65T6.65 2.2q0 .95.65 1.6.65.65 1.55.65.95 0 1.6-.65.65-.65.65-1.6m9.15 15.45h1.85V11.4H24V9.3h-5.65v2.1h1.9v6.25Z"/><path fill="#34A853" d="M5.9 9.65H0v2.95h5.9V9.65Z"/><path fill="#FBBC04" d="M10.35 5.2v2.95h5.95V5.2h-5.95Z"/></svg>